<svg xmlns="http://www.w3.org/2000/svg" viewBox="0 0 800 450" role="img" aria-label="AI for Education">
  <defs>
    <linearGradient id="sky" x1="0" y1="0" x2="1" y2="1">
      <stop offset="0%" stop-color="#1e3a5f"/>
      <stop offset="55%" stop-color="#2563eb"/>
      <stop offset="100%" stop-color="#0d9488"/>
    </linearGradient>
    <radialGradient id="glow" cx="50%" cy="40%" r="55%">
      <stop offset="0%" stop-color="#67e8f9" stop-opacity="0.35"/>
      <stop offset="100%" stop-color="#0f172a" stop-opacity="0"/>
    </radialGradient>
  </defs>
  <rect width="800" height="450" fill="url(#sky)"/>
  <rect width="800" height="450" fill="url(#glow)"/>
  <g fill="none" stroke="#a5f3fc" stroke-opacity="0.45" stroke-width="1.5">
    <circle cx="400" cy="200" r="6" fill="#e0f2fe"/>
    <circle cx="280" cy="150" r="4" fill="#bae6fd"/>
    <circle cx="520" cy="170" r="4" fill="#bae6fd"/>
    <circle cx="330" cy="260" r="4" fill="#bae6fd"/>
    <circle cx="470" cy="250" r="4" fill="#bae6fd"/>
    <path d="M400 200 L280 150 M400 200 L520 170 M400 200 L330 260 M400 200 L470 250 M280 150 L330 260 M520 170 L470 250"/>
  </g>
  <path d="M360 290 h80 v55 a12 12 0 0 1 -12 12 h-56 a12 12 0 0 1 -12 -12 v-55 z" fill="#f8fafc" fill-opacity="0.92"/>
  <path d="M400 255 c-28 0 -50 22 -50 50 v10 h100 v-10 c0 -28 -22 -50 -50 -50 z" fill="none" stroke="#f8fafc" stroke-width="6" stroke-opacity="0.9"/>
</svg>
